<svg id="Layer_1" enable-background="new 0 0 512 512" height="512" viewBox="0 0 512 512" width="512" xmlns="http://www.w3.org/2000/svg"><g id="_x32_4_Driver"><g><path d="m244.6 256.5c-2-2.1-5.4-2.2-7.5-.2-14 13.3-35.9 13.3-49.8 0-2.1-2-5.5-2-7.5.2-2 2.1-2 5.5.2 7.5 18.1 17.2 46.4 17.3 64.5 0 2-2 2.1-5.4.1-7.5z"/><path d="m241.1 202.5c2.7 1.1 5.8-.1 7-2.9 1.4-3.4 6.4-3.4 7.8 0 1.1 2.8 4.3 4 7 2.9s4-4.3 2.9-7c-5.1-12.2-22.4-12.2-27.5 0-1.2 2.7.1 5.9 2.8 7z"/><path d="m183.4 202.5c2.7-1.1 4-4.3 2.9-7-5.1-12.2-22.4-12.2-27.5 0-1.1 2.7.2 5.8 2.9 7 2.6 1.1 5.8-.1 7-2.9 1.5-3.5 6.4-3.4 7.8 0 1 2.7 4.2 4 6.9 2.9z"/><path d="m512 403.3c0-51.2-41.7-92.8-92.9-92.8-24.8 0-47.3 9.8-64 25.7-33.1-18.5-66-17-66.6-17.1-5.4-4.5-11.4-8.9-12.6-9.8-2.7-1.9-6.2-2.4-9.7-.9v-12c23.8-15.5 40.8-40.8 44.6-70.6l1.2-9.1c11.2-2.2 19.6-12.1 19.6-23.9 0-8.8-4.8-16.5-11.8-20.7 1.4-2.3 2.3-4.9 2.3-7.8 0-.5.2-44.2.2-41.5 18.3-8.4 27.6-20.1 27.6-35.1 0-39-63-71.9-137.7-71.9s-137.6 32.9-137.6 71.9c0 15.1 9.4 26.7 27.6 35.1 0 .6.2 42 .2 41.5 0 2.9.9 5.5 2.3 7.8-7 4.3-11.7 11.9-11.7 20.7 0 11.8 8.4 21.6 19.6 23.9l1.2 9.1c3.8 29.8 20.8 55.2 44.6 70.6v12c-3.5-1.6-7-1-9.8 1-4.6 3.4-7 5.1-12.6 9.7h-1c-74.5 0-135 60.5-135 134.9v36.9c0 2.9 2.4 5.3 5.3 5.3h413.8c51.3-.1 92.9-41.7 92.9-92.9zm-92.9 82.2c-45.3 0-82.2-36.9-82.2-82.2s36.9-82.2 82.2-82.2 82.2 36.9 82.2 82.2-36.9 82.2-82.2 82.2zm-131.8-116.7c1.4 9.1 8.7 21.2 15.7 29.4-15.4 28.9-46.5 52.1-74.2 73.3 17.2-32.4 36.9-72 43-107.6 2.8-15.9 2.7-30 .1-43l1.8.2c11.9 8.7 23.6 20.2 33.2 28.3-2.9 6.5-9.7 9.2-17.2 14.2-1.8 1.1-2.7 3.1-2.4 5.2zm-152.5-5.3c-7.4-4.9-14.2-7.8-17.2-14.2 10-8.5 21.2-19.4 33.1-28.3l1.9-.2c-2.7 13-2.7 27.1.1 42.9 6.1 35.6 25.7 74.9 43.1 107.7-25.9-20.4-58.1-42.9-74.3-73.3 7-8.2 14.3-20.2 15.7-29.4.3-2-.6-4-2.4-5.2zm77.5 1.7 13.4 6.8c-.5 5.6-2.6 10.8-6.2 15h-14.3c-3.6-4.2-5.7-9.5-6.2-15zm24.3 67.1-9.1-38.6c4.1-4.8 6.8-10.5 8-16.6l16 8.2c1.9 1 3.1.5 3.9.2-4.2 13.8-10.3 29.1-18.8 46.8zm24.5-110.5c2.6 11.8 2.7 24.6.3 39.1l-9.1 12.8-31.1-15.9 30.4-30.4c2.7-2.6 5.9-4.5 9.5-5.6zm-73.2 110.5c-8.4-17.8-14.6-33-18.8-46.7.8.2 1.9.8 3.9-.2l15.9-8.2c1.3 6.1 4 11.8 8.1 16.6zm-15.7-58.5-9.1-12.9c-2.4-14.5-2.3-27.3.3-39.1 3.6 1.1 6.9 3 9.6 5.7l30.4 30.4zm23.1 73.6 11.7-49.6h10.5l11.7 49.7c-5.5 10.9-11.3 21.8-16.9 32.3-5.6-10.4-11.5-21.5-17-32.4zm-73.9-283.1c0 2.3-1.9 4.2-4.2 4.2s-4.2-1.9-4.2-4.2v-12.9c2.6 2.1 5.4 4 8.3 5.9zm189.9-30.3h-198.4v-19.5c0-2.6 2.1-4.7 4.7-4.7h189.4c2.6 0 4.7 2.1 4.7 4.7-.1.6-.4 20-.4 19.5zm-189.5 10.7h180.8c-20.5 15.3-49.3 24.1-79.6 24.1h-21.6c-30.3 0-59.1-8.8-79.6-24.1zm189.5 6.7v12.9c0 2.3-1.9 4.2-4.2 4.2s-4.2-1.9-4.2-4.2v-6.9c3-2 5.8-3.9 8.4-6zm-226.1-63.7c0-29 52.2-61.2 127-61.2s127 32.3 127 61.2c0 10.2-6.6 18-17.3 23.8-1.4-7-7.6-12.3-15-12.3h-189.4c-7.4 0-13.6 5.3-15 12.3-10.7-5.8-17.3-13.6-17.3-23.8zm39.1 136.7-1.7-13.3c-.3-2.7-2.6-4.7-5.3-4.7-7.5 0-13.7-6.1-13.7-13.7 0-7 4.9-13.3 13.9-13.7 8-.2 14.5-6.7 14.5-14.8v-.8c20 10.3 44.2 16 69.3 16h21.7c25.1 0 49.3-5.8 69.3-16v.8c0 8.1 6.5 14.6 14.5 14.8.1 0 .2.1.4.1 7.5 0 13.7 6.1 13.7 13.7 0 7.5-6.1 13.7-13.7 13.7-2.7 0-4.9 2-5.3 4.7l-1.7 13.3c-5.7 44.1-43.5 77.4-88 77.4-44.4-.1-82.2-33.4-87.9-77.5zm88 88.1c15.4 0 30.1-3.6 43.3-10v10c-4.2 1.7-8.2 4.1-11.5 7.4l-31.8 31.8-31.8-31.8c-3.3-3.3-7.3-5.8-11.5-7.5v-10c13.1 6.5 27.8 10.1 43.3 10.1zm-201.6 141.5c0-64.5 49.4-117.7 112.4-123.7-5.7 5.1-10.9 9.7-15 13-1.6 1.3-2.3 3.4-1.8 5.4 2.7 11.2 10.5 16 19.6 21.7-2.4 7.4-8.9 17.3-14.6 23.2-1.6 1.6-1.9 4-1 6 16.6 34.2 51.8 59.6 86.2 85.9h-185.8zm217.3 31.5c32.4-24.8 69.5-51.4 86.2-85.9 1-2 .6-4.4-1-6-5.6-5.8-12.2-15.8-14.6-23.2 9.2-5.7 16.8-10.4 19.6-21.7.5-2-.2-4.1-1.8-5.4-4.4-3.5-9.2-7.9-14.9-13 16.5 1.6 32 6.4 46 13.8-13.3 16.1-21.3 36.7-21.3 59.1 0 35.7 20.2 66.7 49.8 82.3z"/><path d="m419.1 332.5c-38.8 0-70.8 31.7-70.8 70.8 0 38.9 31.9 70.9 70.8 70.9s70.8-32 70.8-70.9c0-38.1-31-70.8-70.8-70.8zm5.6 106.4v24.4c-2.8.3-8.3.3-11.1 0v-24.5c0-16.3-13.3-29.9-30-29.9h-24.4c-.2-1.8-.3-3.7-.3-5.6 0-1.7.2-5 .3-5.5h23.5c8.6 0 16.6-3.2 22-8.7 7.7-7.8 21.2-7.8 28.9 0 5.4 5.5 13.5 8.7 22 8.7h23.4c.2 1.8.3 3.7.3 5.5 0 1.9-.1 3.7-.3 5.6h-24.4c-16.5 0-29.9 13.4-29.9 30zm52.3-51.8h-21.4c-5.7 0-11-2-14.4-5.5-5.9-6-13.7-9.3-22-9.3-6.6 0-12.9 2.1-18.1 5.9-5.5-8.1-11.9-15.5-19-22.2 10.2-8 23.1-12.9 37.1-12.9 27.4 0 50.7 18.7 57.8 44zm-102.7-23.8c6.9 6.4 13 13.6 18.3 21.4-2.9 1.5-6.3 2.3-9.9 2.3h-21.5c2.5-8.9 7-16.9 13.1-23.7zm-13.1 56.2h22.4c10.6 0 19.3 8.5 19.3 19.2v22.5c-20.1-5.6-36-21.5-41.7-41.7zm74.2 41.7v-22.3c0-10.6 8.5-19.3 19.2-19.3h22.4c-5.7 20.1-21.5 35.9-41.6 41.6z"/><path d="m419.1 389.2c-7.8 0-14.1 6.3-14.1 14.1s6.3 14.1 14.1 14.1 14.1-6.3 14.1-14.1c.1-7.8-6.3-14.1-14.1-14.1zm0 17.6c-1.9 0-3.5-1.6-3.5-3.5s1.6-3.5 3.5-3.5 3.5 1.6 3.5 3.5-1.5 3.5-3.5 3.5z"/></g></g></svg>