<svg id="Layer_1" enable-background="new 0 0 64 64" height="64" viewBox="0 0 64 64" width="64" xmlns="http://www.w3.org/2000/svg"><path d="m60.716 45.681c1.983-4.146 3.097-8.786 3.097-13.681 0-4.896-1.113-9.535-3.098-13.682-.041-.111-.091-.218-.155-.314-5.188-10.542-16.039-17.816-28.56-17.816-12.517 0-23.364 7.269-28.554 17.804-.071.104-.124.22-.167.34-1.98 4.144-3.091 8.778-3.091 13.668s1.111 9.523 3.091 13.667c.043.121.097.237.169.342 5.189 10.535 16.036 17.804 28.552 17.804 12.519 0 23.367-7.271 28.557-17.81.066-.1.117-.209.159-.322zm-28.716 15.132c-3.941 0-8.069-5.336-10.316-14.148h20.633c-2.249 8.812-6.376 14.148-10.317 14.148zm-10.983-17.149c-.583-3.069-.948-6.478-1.026-10.164h24.018c-.079 3.687-.443 7.095-1.026 10.164zm-17.79-10.164h13.765c.075 3.59.421 7.005.994 10.164h-12.322c-1.395-3.136-2.252-6.561-2.437-10.164zm2.436-13.164h12.321c-.572 3.16-.918 6.574-.993 10.164h-13.764c.185-3.602 1.042-7.027 2.436-10.164zm26.337-17.148c3.941 0 8.068 5.336 10.316 14.149h-20.632c2.247-8.814 6.375-14.149 10.316-14.149zm10.982 17.148c.583 3.07.947 6.478 1.026 10.164h-24.017c.078-3.686.443-7.094 1.026-10.164zm17.791 10.164h-13.765c-.075-3.59-.421-7.004-.993-10.164h12.322c1.394 3.137 2.251 6.562 2.436 10.164zm-13.765 3h13.766c-.186 3.603-1.042 7.028-2.437 10.164h-12.322c.572-3.159.918-6.574.993-10.164zm9.78-16.164h-11.402c-1.343-5.59-3.438-10.175-6.025-13.192 7.386 1.954 13.616 6.773 17.427 13.192zm-32.149-13.192c-2.587 3.018-4.683 7.603-6.025 13.192h-11.402c3.811-6.419 10.041-11.238 17.427-13.192zm-17.427 42.52h11.402c1.342 5.59 3.438 10.174 6.025 13.191-7.386-1.953-13.615-6.772-17.427-13.191zm32.148 13.191c2.587-3.017 4.683-7.602 6.025-13.191h11.402c-3.81 6.419-10.04 11.238-17.427 13.191z"/></svg>