<?xml version="1.0" encoding="UTF-8"?>
<svg xmlns="http://www.w3.org/2000/svg" viewBox="0 0 512 512" width="512" height="512"><g id="GLYPH"><path d="M120,376v80a8.00039,8.00039,0,0,0,8,8h16V448h-8V384h8V368H128A8.00039,8.00039,0,0,0,120,376Z"/><rect x="144" y="216" width="64" height="16"/><path d="M493.00586,289.75977a8.00046,8.00046,0,0,0-6.74121-1.56934l-7.60156,1.68945A252.42266,252.42266,0,0,1,432,295.74048V272a31.93861,31.93861,0,0,0-1.07227-8.21c13.80957,7.83935,25.24561,11.78125,34.21582,11.78125q8.81984,0,14.4502-5.06934c16.57715-14.95923-.65918-51.84716-19.34521-81.79345l31.313-44.05811a23.85428,23.85428,0,0,0-1.74609-29.9834l-68.5625-75.96484a23.85589,23.85589,0,0,0-29.64844-4.79981l-44.707,25.33448C319.291,35.94873,274.042,3.40405,254.46777,21.07422c-11.2373,10.14355-8.30957,31.48633,8.70215,63.4375,3.79053,7.11914,8.18457,14.5708,13.09863,22.25049A55.63139,55.63139,0,0,0,258.96582,104h-28.063l-2.687-25.08008a52.5147,52.5147,0,0,0-104.43164,0L121.09717,104h-28.063a56.11333,56.11333,0,0,0-55.88672,52.43262l-4.085,64-.00024.00805L19.27539,436.43262A56,56,0,0,0,75.16113,496H144V480H96.90259l21.42846-200h71.64063a254.89083,254.89083,0,0,0-24.29785,8.31445l-.64844.25977A7.99988,7.99988,0,0,0,160,296V480a8,8,0,0,0,10.97461,7.42676l.64453-.25879a243.20048,243.20048,0,0,1,156.3584-7.99707l22.39453,6.39844A268.81338,268.81338,0,0,0,482.13379,489.499l7.60156-1.68945A8.00085,8.00085,0,0,0,496,480V296A8.00047,8.00047,0,0,0,493.00586,289.75977ZM395.64844,400H384V256h16a16.01833,16.01833,0,0,1,16,16V406.24414A36.14311,36.14311,0,0,0,395.64844,400Zm-130.46-367.04883c3.92529-3.54,26.69384,1.25049,69.43115,36.87793a7.97378,7.97378,0,0,0,.21631,3.208,187.84489,187.84489,0,0,0,41.35254,75.26269,187.84234,187.84234,0,0,0,70.38427,48.718c10.1792,16.30957,17.45411,30.90943,21.11377,42.41675,3.95215,12.42773,2.60645,17.90918,1.1875,19.18945-2.12988,1.92481-13.93164,2.70313-42.57324-16.53906-25.3291-17.01758-54.81445-43.60254-83.02441-74.85742-28.209-31.25391-51.64258-63.30078-65.98438-90.23535C261.07715,46.53711,263.05762,34.875,265.18848,32.95117Zm66.21093,144.99707c21.6587,23.99634,44.13477,45.3772,65.10205,62.05176H376a8.00039,8.00039,0,0,0-8,8v41.55542c-4.44531-1.00854-8.87207-2.12476-13.23242-3.37085l-22.39453-6.39844q-4.88305-1.39526-9.812-2.5874l-3.62354-56.759v-.00708L315.022,159.08447Q322.9065,168.52759,331.39941,177.94824ZM258.96582,120a40.08225,40.08225,0,0,1,39.91992,37.45215l3.3125,51.90137h0l.77246,12.10546A40.00082,40.00082,0,0,1,263.05176,264H248.04565L232.61719,120ZM139.69238,80.625a36.51546,36.51546,0,0,1,72.61524,0L214.812,104H137.188ZM53.11426,157.45215A40.08225,40.08225,0,0,1,93.03418,120h26.34863L103.95435,264H88.94824a40.00109,40.00109,0,0,1-39.91919-42.53979l.77271-12.10669h-.00025ZM135.47363,120h81.05274l15.42846,144H120.04517ZM271.2793,432.95215a96.43494,96.43494,0,0,0-44.3086,6.47558A7.999,7.999,0,0,1,216,432a16.01833,16.01833,0,0,0-16-16,8.00039,8.00039,0,0,1-8-8V384h16v17.0127a32.13588,32.13588,0,0,1,22.18457,20.35546,112.59052,112.59052,0,0,1,42.53613-4.35156Zm-48.459-70.13477a259.28494,259.28494,0,0,1,41.28028-2.79687l-.20118,15.998a242.04469,242.04469,0,0,0-38.71972,2.625Zm9.98926-37.01367-1.41406.40332A32.10087,32.10087,0,0,1,208,350.9873V368H192V344a8.00039,8.00039,0,0,1,8-8,16.01833,16.01833,0,0,0,16-16,8.00027,8.00027,0,0,1,5.80273-7.69238l6.61133-1.88867a161.69846,161.69846,0,0,1,60.36133-5.4834l-1.55078,15.92383A145.8304,145.8304,0,0,0,232.80957,325.80371ZM280,384a48.00293,48.00293,0,0,1,76.80469-38.39941l-9.60938,12.793A31.71721,31.71721,0,0,0,328,352a32,32,0,0,0,0,64,31.71721,31.71721,0,0,0,19.19531-6.39355l9.60938,12.793A48.00293,48.00293,0,0,1,280,384Zm200,89.583-1.33691.29687a252.77079,252.77079,0,0,1-92.53272,3.09033,163.75922,163.75922,0,0,0,22.28174-6.58154,36.16179,36.16179,0,0,0,13.98437-9.49267c2.23975.71045,4.45752,1.49194,6.63282,2.36181A8.00005,8.00005,0,0,0,440,455.83008a16.01833,16.01833,0,0,1,16-16,8.00039,8.00039,0,0,0,8-8v-24H448v17.01269a32.03313,32.03313,0,0,0-16,9.86035V364.94629a32.02712,32.02712,0,0,0,16,9.87109v17.0127h16v-24a8.00039,8.00039,0,0,0-8-8,16.01833,16.01833,0,0,1-16-16,8.00027,8.00027,0,0,0-5.80273-7.69238L432,335.51V311.75a268.54014,268.54014,0,0,0,48-5.78613Z"/></g></svg>
