<svg enable-background="new 0 0 512 512" height="512" viewBox="0 0 512 512" width="512" xmlns="http://www.w3.org/2000/svg"><g id="agreement_job_business_deal_shaking_hands"><g><path d="m445.516 349.191h-33.188v-15.52c0-7.085-7.98-12.83-15.061-12.83v-142.35c0-12.938-10.488-23.424-23.424-23.424-12.938 0-23.424 10.486-23.424 23.424v142.35c-7.08 0-15.063 5.745-15.063 12.83v15.52h-33.189c-7.618 0-13.805 6.182-13.805 13.805v91.23c0 7.629 6.187 13.811 13.805 13.811h143.348c7.623 0 13.809-6.182 13.809-13.811v-91.23c0-7.623-6.185-13.805-13.808-13.805zm-47.286 0h-48.775v-11.659c0-2.405 1.465-4.52 3.678-5.747 3.93 7.422 11.727 12.481 20.711 12.481 8.982 0 16.779-5.06 20.711-12.481 2.211 1.229 3.676 3.342 3.676 5.747v11.659z"/><path d="m130.563 103.406c28.556 0 51.705-23.146 51.705-51.701.001-28.558-23.149-51.705-51.705-51.705-28.555 0-51.705 23.147-51.705 51.705 0 28.556 23.151 51.701 51.705 51.701z"/><path d="m373.842 103.406c28.557 0 51.705-23.146 51.705-51.701 0-28.558-23.149-51.705-51.705-51.705-28.555 0-51.702 23.147-51.702 51.705 0 28.556 23.147 51.701 51.702 51.701z"/><path d="m245.249 200.269h-71.084l-34.646-49.228c-7.063-10.037-20.929-12.449-30.969-5.383-10.036 7.064-12.446 20.93-5.383 30.967l41.286 58.661c4.162 5.913 10.943 9.433 18.176 9.433h82.619c12.273 0 22.226-9.951 22.226-22.225.001-12.275-9.952-22.225-22.225-22.225z"/><path d="m185.633 337.314c.028 0 .038-84.064.038-84.064h-23.005c-10.659 0-18.473-3.742-24.606-12.458l-40.541-59.124c-10.41-14.793-7.478-30.629 5.941-40.793 12.788-9.685 32.419-9.053 42.83 5.742l33.375 48.438h3.305l.01-28.139c0-29.213-23.682-52.895-52.895-52.895s-53.086 23.682-53.086 52.895l.045 167.916-23.906 144.328c-2.771 15.111 7.232 29.607 22.344 32.379s29.605-7.232 32.377-22.343l23.274-140.5 23.272 140.5c2.771 15.11 17.268 25.114 32.378 22.343s25.114-17.268 22.343-32.379z"/><path d="m318.742 343.856h11.281v-10.185c0-7.5 4.569-13.952 11.067-16.721v-139.315c0-18.062 14.692-32.754 32.753-32.754s32.752 14.692 32.752 32.754v139.318c6.498 2.768 11.066 9.219 11.066 16.719v10.185h6.783l.041-176.94c0-29.213-23.68-52.895-52.895-52.895-29.209 0-52.892 23.682-52.892 52.895l.013 33.353h-52.699c6.243 5.379 10.202 13.339 10.202 22.226s-3.959 16.846-10.202 22.225h52.718z"/><path d="m295.323 472.084-1.172 7.076c-2.771 15.111 7.232 29.607 22.344 32.379 15.11 2.771 29.604-7.232 32.376-22.343l2.621-15.825h-49.324c-2.413 0-4.716-.468-6.845-1.287z"/><path d="m449.123 473.02c-1.17.225-2.373.352-3.607.352h-52.719l2.621 15.825c2.771 15.11 17.268 25.114 32.377 22.343 15.111-2.771 25.115-17.268 22.344-32.379z"/></g></g><g id="Capa_1"/></svg>